<?xml version="1.0" encoding="UTF-8" standalone="no"?><!DOCTYPE svg PUBLIC "-//W3C//DTD SVG 1.1//EN" "http://www.w3.org/Graphics/SVG/1.1/DTD/svg11.dtd"><svg width="100%" height="100%" viewBox="0 0 190 50" version="1.1" xmlns="http://www.w3.org/2000/svg" xmlns:xlink="http://www.w3.org/1999/xlink" xml:space="preserve" xmlns:serif="http://www.serif.com/" style="fill-rule:evenodd;clip-rule:evenodd;stroke-linejoin:round;stroke-miterlimit:2;"><rect id="Logo" x="0" y="0" width="190" height="49.148" style="fill:none;"/><clipPath id="_clip1"><rect x="0" y="0" width="190" height="49.148"/></clipPath><g clip-path="url(#_clip1)"><g><path d="M81.79,13.876c0.485,-0.464 1.07,-0.698 1.757,-0.698c0.686,0 1.271,0.234 1.756,0.698c0.485,0.463 0.726,1.005 0.726,1.626c0,0.621 -0.241,1.163 -0.726,1.629c-0.485,0.464 -1.07,0.695 -1.756,0.695c-0.687,0 -1.272,-0.231 -1.757,-0.695c-0.484,-0.466 -0.727,-1.008 -0.727,-1.629c0,-0.621 0.243,-1.163 0.727,-1.626" style="fill:#9cd116;fill-rule:nonzero;"/><path d="M81.79,25.032c0.485,-0.464 1.07,-0.697 1.757,-0.697c0.686,0 1.271,0.233 1.756,0.697c0.485,0.464 0.726,1.006 0.726,1.627c0,0.62 -0.241,1.163 -0.726,1.628c-0.485,0.464 -1.07,0.695 -1.756,0.695c-0.687,0 -1.272,-0.231 -1.757,-0.695c-0.484,-0.465 -0.727,-1.008 -0.727,-1.628c0,-0.621 0.243,-1.163 0.727,-1.627" style="fill:#9cd116;fill-rule:nonzero;"/><path d="M70.985,23.489c0.938,-0.979 1.409,-2.195 1.409,-3.649l0,-12.867l4.646,0l0,12.867c0,2.644 -0.897,4.856 -2.695,6.637c-1.796,1.782 -4.049,2.673 -6.759,2.673c-2.71,0 -4.962,-0.891 -6.758,-2.673c-1.797,-1.781 -2.695,-3.993 -2.695,-6.637l0,-12.867l4.647,0l0,12.867c0,1.442 0.472,2.656 1.415,3.639c0.945,0.985 2.078,1.478 3.399,1.478c1.323,0 2.454,-0.491 3.391,-1.468" style="fill:#4d4d4d;fill-rule:nonzero;"/><path d="M88.041,6.972l4.965,0l5.572,16.123l5.586,-16.123l4.965,0l-8.069,21.709l-4.966,0l-8.053,-21.709Z" style="fill:#4d4d4d;fill-rule:nonzero;"/><path d="M128.806,24.502l0,4.178l-16.289,0l0,-21.707l15.971,0l0,4.193l-11.309,0l0,4.344l8.825,0l0,4.179l-8.825,0l0,4.813l11.627,0Z" style="fill:#4d4d4d;fill-rule:nonzero;"/><path d="M144.69,11.998c-0.56,-0.555 -1.264,-0.833 -2.112,-0.833l-4.8,0l0,5.738l4.8,0c0.848,0 1.552,-0.271 2.112,-0.811c0.559,-0.54 0.84,-1.202 0.84,-1.99c0,-0.847 -0.281,-1.549 -0.84,-2.104m-11.574,-5.026l9.614,0c2.15,0 3.928,0.69 5.335,2.067c1.408,1.377 2.111,3.064 2.111,5.063c0,0.868 -0.135,1.681 -0.408,2.437c-0.273,0.758 -0.593,1.368 -0.96,1.833c-0.369,0.463 -0.744,0.863 -1.129,1.195c-0.384,0.333 -0.711,0.561 -0.983,0.682l-0.394,0.211l4.646,8.221l-4.964,0l-4.178,-7.6l-4.028,0l0,7.6l-4.662,0l0,-21.709Z" style="fill:#4d4d4d;fill-rule:nonzero;"/><path d="M163.488,20.566c-0.731,-0.443 -1.624,-0.816 -2.681,-1.113c-1.053,-0.298 -2.102,-0.649 -3.148,-1.051c-1.044,-0.405 -1.935,-1.07 -2.671,-1.999c-0.736,-0.929 -1.106,-2.103 -1.106,-3.526c0,-1.756 0.704,-3.256 2.112,-4.496c1.409,-1.242 3.237,-1.863 5.488,-1.863c0.889,0 1.747,0.103 2.574,0.31c0.827,0.207 1.505,0.45 2.035,0.728c0.531,0.276 0.994,0.56 1.394,0.846c0.397,0.288 0.684,0.538 0.855,0.751l0.272,0.302l-2.786,2.951c-0.121,-0.141 -0.29,-0.315 -0.507,-0.522c-0.216,-0.206 -0.673,-0.481 -1.37,-0.824c-0.695,-0.344 -1.413,-0.515 -2.149,-0.515c-0.888,0 -1.602,0.226 -2.141,0.681c-0.541,0.455 -0.812,1.004 -0.812,1.651c0,0.725 0.367,1.309 1.098,1.748c0.733,0.438 1.621,0.81 2.666,1.112c1.042,0.302 2.092,0.655 3.148,1.06c1.054,0.403 1.949,1.07 2.686,1.999c0.737,0.927 1.105,2.104 1.105,3.527c0,2.007 -0.728,3.647 -2.186,4.918c-1.459,1.273 -3.47,1.908 -6.033,1.908c-1.009,0 -1.987,-0.124 -2.93,-0.37c-0.943,-0.248 -1.721,-0.544 -2.331,-0.885c-0.611,-0.344 -1.148,-0.692 -1.612,-1.045c-0.465,-0.353 -0.797,-0.651 -0.999,-0.893l-0.349,-0.38l2.802,-2.785c0.14,0.163 0.339,0.372 0.598,0.629c0.256,0.256 0.83,0.603 1.718,1.036c0.887,0.436 1.817,0.651 2.784,0.651c1.122,0 1.996,-0.262 2.628,-0.786c0.63,-0.526 0.945,-1.191 0.945,-1.998c0,-0.728 -0.366,-1.313 -1.097,-1.757" style="fill:#4d4d4d;fill-rule:nonzero;"/><path d="M190,24.502l0,4.178l-16.288,0l0,-21.707l15.97,0l0,4.193l-11.309,0l0,4.344l8.826,0l0,4.179l-8.826,0l0,4.813l11.627,0Z" style="fill:#4d4d4d;fill-rule:nonzero;"/><path d="M175.991,39.911c0,1.058 -0.352,1.499 -1.574,1.499c-1.245,0 -1.598,-0.453 -1.598,-1.499l0,-1.083c0,-1.056 0.378,-1.509 1.598,-1.509c1.222,0 1.574,0.453 1.574,1.509l0,1.083Zm-4.469,0c0,1.813 0.882,2.721 2.895,2.721c1.926,0 2.87,-0.971 2.87,-2.721l0,-1.083c0,-1.812 -0.867,-2.718 -2.87,-2.718c-1.95,0 -2.895,0.957 -2.895,2.718l0,1.083m-2.512,2.014c0,0.454 0.113,0.567 0.567,0.567l0.162,0c0.454,0 0.566,-0.113 0.566,-0.567l0,-5.11c0,-0.454 -0.112,-0.567 -0.566,-0.567l-0.162,0c-0.454,0 -0.567,0.113 -0.567,0.567l0,5.11Zm0.088,-8.156c-0.315,0.301 -0.315,0.805 0,1.121c0.314,0.301 0.818,0.301 1.119,0c0.317,-0.316 0.317,-0.82 0,-1.121c-0.301,-0.316 -0.805,-0.316 -1.119,0m-2.973,4.658c0,-0.768 0.24,-1.109 1.082,-1.109c0.101,0 0.189,0 0.252,0.013c0.441,0.064 0.529,-0.025 0.529,-0.439l0,-0.177c0,-0.442 -0.113,-0.541 -0.529,-0.593c-0.063,-0.011 -0.151,-0.011 -0.252,-0.011c-1.585,0 -2.38,0.742 -2.38,2.227l0,3.587c0,0.454 0.115,0.567 0.568,0.567l0.164,0c0.454,0 0.566,-0.113 0.566,-0.567l0,-3.498Zm-3.782,-4.242c0.214,-0.354 0.176,-0.442 -0.239,-0.442l-0.314,0c-0.416,0 -0.58,0.101 -0.743,0.467l-0.39,0.817c-0.165,0.341 -0.102,0.429 0.264,0.429l0.137,0c0.391,0 0.529,-0.088 0.732,-0.404l0.553,-0.867Zm-0.025,6.368c0,0.794 -0.479,0.982 -1.422,0.982c-0.756,0 -1.235,-0.201 -1.235,-0.867c0,-0.644 0.404,-0.894 1.272,-0.894l1.385,0l0,0.779Zm1.284,-2.379c0,-1.497 -1.02,-2.064 -2.846,-2.064c-0.452,0 -0.867,0.039 -1.258,0.1c-0.352,0.063 -0.453,0.177 -0.453,0.542l0,0.176c0,0.391 0.101,0.467 0.465,0.403c0.379,-0.076 0.819,-0.112 1.323,-0.112c0.993,0 1.485,0.213 1.485,0.955l0,0.618l-1.385,0c-1.662,0 -2.567,0.553 -2.567,1.901c0,1.295 0.855,1.939 2.555,1.939c1.862,0 2.681,-0.619 2.681,-2.016l0,-2.442Zm-10.906,-1.158c0,0.352 0.088,0.442 0.44,0.442l0.655,0l0,2.844c0,1.549 0.754,2.317 2.265,2.317c0.34,0 0.681,-0.039 1.02,-0.102c0.414,-0.089 0.517,-0.213 0.517,-0.629l0,-0.15c0,-0.442 -0.103,-0.531 -0.517,-0.442c-0.303,0.076 -0.642,0.114 -1.02,0.114c-0.654,0 -0.981,-0.365 -0.981,-1.096l0,-2.856l1.761,0c0.415,0 0.529,-0.09 0.529,-0.531l0,-0.15c0,-0.441 -0.114,-0.529 -0.529,-0.529l-1.761,0l0,-1.182c0,-0.366 -0.089,-0.454 -0.453,-0.454l-0.166,0c-0.363,0 -0.465,0.088 -0.514,0.454l-0.151,1.182l-0.667,0.127c-0.34,0.063 -0.428,0.163 -0.428,0.516l0,0.125Zm-2.283,4.909c0,0.454 0.113,0.567 0.567,0.567l0.165,0c0.452,0 0.566,-0.113 0.566,-0.567l0,-5.11c0,-0.454 -0.114,-0.567 -0.566,-0.567l-0.165,0c-0.454,0 -0.567,0.113 -0.567,0.567l0,5.11Zm0.088,-8.156c-0.314,0.301 -0.314,0.805 0,1.121c0.316,0.301 0.82,0.301 1.122,0c0.313,-0.316 0.313,-0.82 0,-1.121c-0.302,-0.316 -0.806,-0.316 -1.122,0m-6.034,8.031c0,0.415 0.088,0.504 0.503,0.617c0.531,0.138 1.109,0.215 1.725,0.215c1.776,0 2.544,-0.555 2.544,-1.763c0,-0.945 -0.429,-1.386 -1.348,-1.776l-1.46,-0.629c-0.441,-0.202 -0.591,-0.34 -0.591,-0.642c0,-0.364 0.289,-0.515 1.108,-0.515c0.516,0 1.019,0.061 1.497,0.201c0.404,0.112 0.516,0.011 0.516,-0.429l0,-0.152c0,-0.415 -0.087,-0.489 -0.528,-0.628c-0.454,-0.125 -0.944,-0.188 -1.46,-0.188c-1.675,0 -2.404,0.541 -2.404,1.711c0,0.918 0.391,1.347 1.245,1.713l1.36,0.603c0.643,0.29 0.805,0.441 0.805,0.756c0,0.402 -0.313,0.542 -1.17,0.542c-0.617,0 -1.22,-0.077 -1.839,-0.24c-0.401,-0.102 -0.503,0 -0.503,0.44l0,0.164Zm-2.646,-3.373c0,-0.768 0.239,-1.109 1.083,-1.109c0.1,0 0.189,0 0.251,0.013c0.443,0.064 0.53,-0.025 0.53,-0.439l0,-0.177c0,-0.442 -0.115,-0.541 -0.53,-0.593c-0.062,-0.011 -0.151,-0.011 -0.251,-0.011c-1.587,0 -2.379,0.742 -2.379,2.227l0,3.587c0,0.454 0.113,0.567 0.567,0.567l0.162,0c0.454,0 0.567,-0.113 0.567,-0.567l0,-3.498Zm-6.597,0.049c0,-0.831 0.492,-1.246 1.461,-1.246c0.995,0 1.485,0.415 1.485,1.246l0,0.316l-2.946,0l0,-0.316Zm4.143,0.795c0.011,-0.19 0.024,-0.366 0.024,-0.556c0,-1.71 -0.919,-2.605 -2.667,-2.605c-1.865,0 -2.795,0.906 -2.795,2.732l0,1.095c0,1.9 0.982,2.695 3.097,2.695c0.591,0 1.131,-0.064 1.636,-0.203c0.441,-0.113 0.515,-0.201 0.515,-0.616l0,-0.163c0,-0.443 -0.113,-0.542 -0.515,-0.443c-0.58,0.14 -1.121,0.204 -1.636,0.204c-1.273,0 -1.802,-0.366 -1.802,-1.285l0,-0.278l3.5,0c0.467,0 0.592,-0.112 0.643,-0.577m-10.771,-2.468c-0.101,-0.442 -0.239,-0.555 -0.692,-0.555l-0.188,0c-0.454,0 -0.542,0.113 -0.429,0.555l1.007,4.154c0.151,0.629 0.352,1.07 0.591,1.309c0.239,0.239 0.68,0.353 1.323,0.353c0.641,0 1.082,-0.127 1.32,-0.366c0.24,-0.24 0.443,-0.68 0.594,-1.296l1.006,-4.154c0.114,-0.442 0.026,-0.555 -0.428,-0.555l-0.189,0c-0.452,0 -0.592,0.113 -0.691,0.555l-0.982,4.091c-0.114,0.504 -0.264,0.604 -0.63,0.604c-0.352,0 -0.517,-0.114 -0.63,-0.604l-0.982,-4.091Zm-3.787,5.122c0,0.454 0.115,0.567 0.567,0.567l0.164,0c0.454,0 0.567,-0.113 0.567,-0.567l0,-5.11c0,-0.454 -0.113,-0.567 -0.567,-0.567l-0.164,0c-0.452,0 -0.567,0.113 -0.567,0.567l0,5.11Zm0.088,-8.156c-0.314,0.301 -0.314,0.805 0,1.121c0.316,0.301 0.819,0.301 1.122,0c0.313,-0.316 0.313,-0.82 0,-1.121c-0.303,-0.316 -0.806,-0.316 -1.122,0m-5.625,4.784c0,-0.857 0.327,-1.235 1.447,-1.235c1.119,0 1.436,0.378 1.436,1.235l0,3.372c0,0.454 0.112,0.567 0.567,0.567l0.162,0c0.453,0 0.566,-0.113 0.566,-0.567l0,-3.372c0,-1.626 -0.817,-2.442 -2.731,-2.442c-1.826,0 -2.745,0.816 -2.745,2.442l0,3.372c0,0.454 0.115,0.567 0.567,0.567l0.164,0c0.454,0 0.567,-0.113 0.567,-0.567l0,-3.372Zm-9.049,1.207c0,1.914 1.058,2.872 3.185,2.872c2.003,0 3.197,-0.894 3.197,-2.872l0,-4.87c0,-0.466 -0.113,-0.581 -0.578,-0.581l-0.176,0c-0.467,0 -0.58,0.115 -0.58,0.581l0,4.87c0,1.172 -0.641,1.624 -1.863,1.624c-1.221,0 -1.862,-0.452 -1.862,-1.624l0,-4.87c0,-0.466 -0.114,-0.581 -0.58,-0.581l-0.162,0c-0.467,0 -0.581,0.115 -0.581,0.581l0,4.87Zm-5.741,0.151c0,1.058 -0.353,1.499 -1.574,1.499c-1.245,0 -1.597,-0.453 -1.597,-1.499l0,-1.083c0,-1.056 0.376,-1.509 1.597,-1.509c1.221,0 1.574,0.453 1.574,1.509l0,1.083Zm-4.469,0c0,1.813 0.882,2.721 2.895,2.721c1.926,0 2.872,-0.971 2.872,-2.721l0,-1.083c0,-1.812 -0.869,-2.718 -2.872,-2.718c-1.95,0 -2.895,0.957 -2.895,2.718l0,1.083m-2.598,-1.484c0,-0.768 0.239,-1.109 1.081,-1.109c0.101,0 0.189,0 0.252,0.013c0.441,0.064 0.528,-0.025 0.528,-0.439l0,-0.177c0,-0.442 -0.112,-0.541 -0.528,-0.593c-0.063,-0.011 -0.151,-0.011 -0.252,-0.011c-1.585,0 -2.379,0.742 -2.379,2.227l0,3.587c0,0.454 0.114,0.567 0.566,0.567l0.164,0c0.454,0 0.568,-0.113 0.568,-0.567l0,-3.498Zm-7.154,-1.411c0,0.352 0.088,0.442 0.441,0.442l0.655,0l0,2.844c0,1.549 0.753,2.317 2.264,2.317c0.34,0 0.681,-0.039 1.02,-0.102c0.415,-0.089 0.517,-0.213 0.517,-0.629l0,-0.15c0,-0.442 -0.102,-0.531 -0.517,-0.442c-0.302,0.076 -0.641,0.114 -1.02,0.114c-0.655,0 -0.981,-0.365 -0.981,-1.096l0,-2.856l1.762,0c0.415,0 0.528,-0.09 0.528,-0.531l0,-0.15c0,-0.441 -0.113,-0.529 -0.528,-0.529l-1.762,0l0,-1.182c0,-0.366 -0.089,-0.454 -0.452,-0.454l-0.166,0c-0.365,0 -0.464,0.088 -0.515,0.454l-0.15,1.182l-0.668,0.127c-0.34,0.063 -0.428,0.163 -0.428,0.516l0,0.125Zm-5.025,1.537c0,-0.857 0.327,-1.235 1.449,-1.235c1.119,0 1.434,0.378 1.434,1.235l0,3.372c0,0.454 0.114,0.567 0.566,0.567l0.163,0c0.454,0 0.568,-0.113 0.568,-0.567l0,-3.372c0,-1.626 -0.819,-2.442 -2.731,-2.442c-1.827,0 -2.746,0.816 -2.746,2.442l0,3.372c0,0.454 0.114,0.567 0.567,0.567l0.165,0c0.451,0 0.565,-0.113 0.565,-0.567l0,-3.372Zm-6.598,-0.077c0,-0.831 0.493,-1.246 1.462,-1.246c0.994,0 1.484,0.415 1.484,1.246l0,0.316l-2.946,0l0,-0.316Zm4.142,0.795c0.014,-0.19 0.025,-0.366 0.025,-0.556c0,-1.71 -0.919,-2.605 -2.668,-2.605c-1.862,0 -2.794,0.906 -2.794,2.732l0,1.095c0,1.9 0.981,2.695 3.097,2.695c0.591,0 1.133,-0.064 1.637,-0.203c0.439,-0.113 0.514,-0.201 0.514,-0.616l0,-0.163c0,-0.443 -0.113,-0.542 -0.514,-0.443c-0.581,0.14 -1.122,0.204 -1.637,0.204c-1.272,0 -1.802,-0.366 -1.802,-1.285l0,-0.278l3.502,0c0.464,0 0.591,-0.112 0.64,-0.577m-10.575,0.212c0,1.221 0.528,1.901 2.053,1.901c0.665,0 1.207,-0.088 1.622,-0.264c0.264,-0.114 0.503,0.013 0.503,0.415l0,0.189c0,0.391 -0.15,0.517 -0.514,0.655c-0.443,0.163 -0.982,0.253 -1.637,0.253c-2.266,0 -3.387,-0.971 -3.387,-3.149l0,-2.014c0,-2.178 1.133,-3.272 3.387,-3.272c0.628,0 1.158,0.087 1.585,0.264c0.453,0.189 0.529,0.252 0.529,0.654l0,0.19c0,0.454 -0.101,0.566 -0.515,0.416c-0.479,-0.191 -1.02,-0.29 -1.625,-0.29c-1.41,0 -2.001,0.641 -2.001,2.038l0,2.014Z" style="fill:#797979;fill-rule:nonzero;"/><path d="M25.811,0c-1.219,0 -2.085,1.187 -1.708,2.348l0.78,2.427l-4.195,0c-1.264,0 -2.13,1.273 -1.668,2.448c0.182,0.455 0.503,1.272 0.92,2.326l-2.852,0c-1.27,0 -2.139,1.279 -1.664,2.458c1.721,4.296 5.216,13.021 6.457,16.12c0.245,0.612 0.361,1.236 0.361,1.844c0,2.613 -2.112,4.938 -4.953,4.938c-2.731,0.003 -4.95,-2.211 -4.95,-4.945l0,-26.904c0,-1.691 -1.368,-3.06 -3.058,-3.06l-9.281,0l0,25.61c0,2.084 0.27,4.105 0.78,6.031c0,0 0,0.001 0.001,0.002c2.665,10.077 11.844,17.505 22.759,17.505c12.943,0 23.446,-10.445 23.538,-23.366l0,-19.175c-0.049,-3.656 -3.029,-6.607 -6.698,-6.607l-14.569,0Z" style="fill:url(#_Radial2);fill-rule:nonzero;"/><path d="M26.462,26.183c-0.807,-2.104 -4.625,-11.818 -6.523,-16.634l-2.851,0c-1.27,0 -2.14,1.279 -1.665,2.458c1.722,4.296 5.217,13.021 6.458,16.121c0.246,0.61 0.361,1.234 0.361,1.843c0,2.613 -2.111,4.938 -4.953,4.938l0,7.494c2.138,-0.041 4.171,-0.589 5.897,-1.727c7.377,-4.863 3.276,-14.493 3.276,-14.493" style="fill:#9cd116;fill-rule:nonzero;"/><path d="M0.001,0l-0.001,0.001l0,25.609c0,2.084 0.27,4.105 0.78,6.031c2.769,6.511 10.105,10.893 16.509,10.763c0.369,-0.007 0.733,-0.036 1.094,-0.073l0,-7.544c-0.349,0.079 -0.715,0.122 -1.094,0.122c-0.049,0 -0.095,-0.005 -0.142,-0.007c-2.665,-0.073 -4.808,-2.253 -4.808,-4.938l0,-26.904c0,-1.69 -1.369,-3.06 -3.059,-3.06l-9.279,0Z" style="fill:url(#_Linear3);fill-rule:nonzero;"/><path d="M20.688,4.775c-1.264,0 -2.13,1.273 -1.668,2.448c0.182,0.455 0.503,1.272 0.92,2.326c1.896,4.816 5.717,14.53 6.521,16.634c0,0 4.103,9.631 -3.274,14.493c-6.889,4.546 -18.706,-0.346 -22.405,-9.029c3.546,10.838 17.255,17.956 26.021,13.207c9.385,-5.085 5.45,-17.105 5.45,-17.105c-1.882,-6.059 -5.577,-17.449 -7.37,-22.974l-4.195,0Zm-19.906,26.872c0,-0.001 -0.001,-0.004 -0.002,-0.006l0.002,0.006Z" style="fill:url(#_Linear4);fill-rule:nonzero;"/><path d="M25.811,0c-1.219,0 -2.085,1.187 -1.708,2.348c1.793,5.524 6.268,19.342 8.15,25.401c0,0 3.935,12.02 -5.45,17.105c-8.767,4.75 -22.48,-2.373 -26.023,-13.213l0,0.001c2.664,10.078 11.844,17.506 22.76,17.506c12.943,0 23.446,-10.445 23.538,-23.366l0,-19.175c-0.049,-3.656 -3.029,-6.607 -6.698,-6.607l-14.569,0Z" style="fill:url(#_Radial5);fill-rule:nonzero;"/></g></g><defs><radialGradient id="_Radial2" cx="0" cy="0" r="1" gradientUnits="userSpaceOnUse" gradientTransform="matrix(25.033,0,0,-25.033,30.2282,22.612)"><stop offset="0" style="stop-color:#797979;stop-opacity:1"/><stop offset="0.05" style="stop-color:#797979;stop-opacity:1"/><stop offset="1" style="stop-color:#4d4d4d;stop-opacity:1"/></radialGradient><linearGradient id="_Linear3" x1="0" y1="0" x2="1" y2="0" gradientUnits="userSpaceOnUse" gradientTransform="matrix(10.6561,14.4372,14.4372,-10.6561,8.41328,20.2122)"><stop offset="0" style="stop-color:#4d4d4d;stop-opacity:1"/><stop offset="0.05" style="stop-color:#4d4d4d;stop-opacity:1"/><stop offset="1" style="stop-color:#9cd116;stop-opacity:1"/></linearGradient><linearGradient id="_Linear4" x1="0" y1="0" x2="1" y2="0" gradientUnits="userSpaceOnUse" gradientTransform="matrix(34.5039,46.7472,46.7472,-34.5039,6.55137,11.0222)"><stop offset="0" style="stop-color:#9cd116;stop-opacity:1"/><stop offset="0.03" style="stop-color:#9cd116;stop-opacity:1"/><stop offset="0.95" style="stop-color:#4d4d4d;stop-opacity:1"/><stop offset="1" style="stop-color:#4d4d4d;stop-opacity:1"/></linearGradient><radialGradient id="_Radial5" cx="0" cy="0" r="1" gradientUnits="userSpaceOnUse" gradientTransform="matrix(21.5559,0,0,-21.5559,27.1126,23.0364)"><stop offset="0" style="stop-color:#797979;stop-opacity:1"/><stop offset="0.05" style="stop-color:#797979;stop-opacity:1"/><stop offset="1" style="stop-color:#4d4d4d;stop-opacity:1"/></radialGradient></defs></svg>