<?xml version="1.0" encoding="UTF-8" standalone="no"?><!DOCTYPE svg PUBLIC "-//W3C//DTD SVG 1.1//EN" "http://www.w3.org/Graphics/SVG/1.1/DTD/svg11.dtd"><svg width="100%" height="100%" viewBox="0 0 541 507" version="1.1" xmlns="http://www.w3.org/2000/svg" xmlns:xlink="http://www.w3.org/1999/xlink" xml:space="preserve" xmlns:serif="http://www.serif.com/" style="fill-rule:evenodd;clip-rule:evenodd;stroke-miterlimit:2;"><g><g><rect x="0" y="0" width="540.01" height="506.131" style="fill:#fff;"/><clipPath id="_clip1"><rect x="0" y="0" width="540.01" height="506.131"/></clipPath><g clip-path="url(#_clip1)"><g><path d="M-60.047,826.209c74.449,19.782 144.532,13.757 197.366,-16.939c135.043,-78.469 62.075,-233.604 61.459,-234.829c-14.928,-34.375 -87.323,-196.576 -113.969,-256.172l-8.591,-19.181c-3.168,-7.065 -5.705,-12.731 -7.443,-16.608c-2.487,-5.563 -1.721,-11.588 2.096,-16.536c3.817,-4.932 9.896,-7.769 16.666,-7.769l65.193,0c16.425,44.549 43.229,117.404 69.417,189.225c22.322,61.318 43.379,119.507 56.835,157.686c0.033,0.088 0.549,1.554 1.347,4.053c7.851,24.825 43.853,158.522 -63.23,231.56c-0.865,0.586 -1.721,1.173 -2.603,1.752c-1.48,0.974 -2.977,1.949 -4.524,2.902c-2.653,1.635 -5.364,3.247 -8.15,4.801c-0.873,0.462 -1.73,0.938 -2.611,1.407c-3.302,1.781 -6.67,3.54 -10.155,5.197c-59.787,28.577 -139.517,28.988 -218.681,1.187c-6.279,-2.199 -12.492,-4.574 -18.646,-7.058c-2.029,-0.828 -4,-1.752 -6.013,-2.609c-4.083,-1.723 -8.158,-3.46 -12.142,-5.314c-2.353,-1.078 -4.649,-2.258 -6.961,-3.379c-3.592,-1.752 -7.177,-3.482 -10.695,-5.329c-2.428,-1.268 -4.798,-2.609 -7.202,-3.921c-3.318,-1.818 -6.636,-3.635 -9.905,-5.548c-2.42,-1.415 -4.782,-2.903 -7.16,-4.361c-3.135,-1.913 -6.262,-3.841 -9.331,-5.842c-2.387,-1.547 -4.707,-3.13 -7.028,-4.72m149.381,-478.189l42.239,0c38.605,86.422 98.11,219.833 111.266,250.111c0.666,1.407 66.64,141.546 -53.117,211.103c-46.531,27.06 -111.665,32.359 -178.679,14.556c-87.648,-23.278 -5.631,-126.719 12.832,-110.477c18.413,16.198 42.846,25.125 68.827,25.125l0.125,0c53.824,0 97.627,-38.508 97.627,-85.857c0,-10.913 -2.37,-21.695 -7.077,-32c-21.69,-47.73 -82.733,-182.035 -112.813,-248.19c-2.545,-5.556 -1.822,-11.574 1.979,-16.528c3.809,-4.984 9.946,-7.843 16.791,-7.843m406.867,-146.992l-254.509,0c-6.57,0 -12.542,2.675 -16.4,7.351c-3.826,4.654 -4.874,10.474 -2.853,15.949c18.463,50.192 52.336,142.287 83.921,228.965c21.898,60.08 43.554,119.859 58.482,162.201c0.657,1.788 69.617,193.601 -100.513,274.848c-4.208,2.008 -8.499,3.892 -12.841,5.651c-1.488,0.593 -3.01,1.114 -4.507,1.685c-2.911,1.1 -5.788,2.236 -8.757,3.233c-1.78,0.593 -3.593,1.106 -5.389,1.663c-2.737,0.858 -5.473,1.738 -8.25,2.507c-1.93,0.528 -3.901,0.953 -5.872,1.451c-2.694,0.675 -5.372,1.371 -8.1,1.957c-2.046,0.455 -4.133,0.799 -6.204,1.195c-2.695,0.513 -5.398,1.055 -8.134,1.495c-2.129,0.337 -4.283,0.579 -6.428,0.872c-2.72,0.374 -5.448,0.763 -8.2,1.056c-2.188,0.234 -4.433,0.374 -6.637,0.557c-2.753,0.227 -5.505,0.476 -8.283,0.616c-2.262,0.132 -4.541,0.168 -6.836,0.241c-2.77,0.074 -5.539,0.191 -8.333,0.206c-0.441,0 -0.89,0.036 -1.356,0.036c-2.121,0 -4.275,-0.11 -6.395,-0.161c-2.412,-0.037 -4.816,-0.059 -7.244,-0.161c-2.645,-0.125 -5.298,-0.315 -7.967,-0.491c-2.429,-0.161 -4.849,-0.286 -7.277,-0.506c-2.711,-0.242 -5.439,-0.572 -8.158,-0.879c-2.429,-0.272 -4.841,-0.506 -7.269,-0.829c-2.786,-0.374 -5.589,-0.843 -8.383,-1.282c-2.404,-0.381 -4.79,-0.719 -7.21,-1.144c-2.886,-0.52 -5.789,-1.143 -8.699,-1.73c-2.329,-0.461 -4.658,-0.886 -7.02,-1.399c-3.052,-0.675 -6.12,-1.466 -9.173,-2.221c-2.228,-0.543 -4.432,-1.034 -6.678,-1.627c-3.351,-0.887 -6.719,-1.899 -10.113,-2.888c-1.929,-0.572 -3.875,-1.07 -5.821,-1.671c-5.323,-1.642 -10.645,-3.394 -16.001,-5.27c-3.884,-1.371 -7.759,-2.807 -11.61,-4.288c-1.214,-0.469 -2.403,-0.945 -3.617,-1.422c-2.662,-1.048 -5.315,-2.125 -7.968,-3.218c-1.339,-0.557 -2.669,-1.128 -4.008,-1.693c-2.612,-1.128 -5.19,-2.264 -7.776,-3.43c-1.189,-0.542 -2.412,-1.085 -3.593,-1.634c-3.476,-1.613 -6.927,-3.247 -10.362,-4.948c-0.225,-0.11 -0.449,-0.212 -0.69,-0.337c-3.626,-1.796 -7.219,-3.672 -10.762,-5.556c-1.139,-0.601 -2.27,-1.231 -3.401,-1.847c-2.47,-1.334 -4.899,-2.689 -7.327,-4.075c-1.273,-0.725 -2.52,-1.444 -3.784,-2.177c-2.37,-1.378 -4.724,-2.792 -7.053,-4.207c-1.139,-0.696 -2.287,-1.385 -3.393,-2.074c-3.077,-1.906 -6.104,-3.841 -9.098,-5.812c-0.291,-0.205 -0.599,-0.381 -0.906,-0.572c72.029,58.167 167.693,92.835 270.584,92.835c220.586,0 400.056,-158.17 400.056,-352.591l0,-291.119c0,-51.453 -47.504,-93.311 -105.885,-93.311" style="fill:#9cd116;fill-rule:nonzero;"/><path d="M320.896,526.72c0.582,0 0.582,0 -3.095,-20.263c-0.878,-4.841 -1.966,-10.839 -3.161,-17.444c-3.806,-21.047 -8.695,-48.263 -11.327,-63.911c-3.458,-20.558 -3.021,-21.142 -8.555,-24.277c-5.533,-3.136 -17.036,-8.823 -24.972,-22.35c-7.936,-13.526 -12.304,-34.89 -6.917,-51.771c5.388,-16.881 20.531,-29.277 36.039,-35.475c15.508,-6.198 31.38,-6.198 46.086,-1.75c14.707,4.448 28.249,13.344 35.384,26.761c7.135,13.417 7.863,31.356 4.441,45.501c-3.421,14.145 -10.993,24.5 -22.497,31.646c-11.503,7.146 -26.938,11.084 -40.553,9.625c-13.614,-1.458 -25.409,-8.312 -33.345,-15.677c-7.936,-7.365 -12.013,-15.24 -14.998,-24.063c-2.985,-8.824 -4.878,-18.594 -2.038,-29.531c2.839,-10.938 10.411,-23.042 19.948,-29.97c9.538,-6.928 21.041,-8.678 28.286,-11.266c7.244,-2.588 10.229,-6.016 10.738,-10.61c0.51,-4.594 -1.456,-10.354 -4.987,-12.359c-3.531,-2.006 -8.627,-0.256 -10.356,2.096c-1.73,2.352 -0.091,5.305 1.947,5.979c2.039,0.674 4.478,-0.929 5.206,-5.851c0.728,-4.922 -0.255,-13.163 -0.765,-18.066c-0.509,-4.904 -0.546,-6.472 -2.493,-7.019c-1.948,-0.547 -5.807,-0.073 -9.192,-2.406c-3.386,-2.333 -6.298,-7.475 -7.536,-12.815c-1.237,-5.342 -0.8,-10.884 -1.82,-15.477c-1.019,-4.594 -3.494,-8.24 -7.644,-10.282c-4.15,-2.042 -9.975,-2.479 -18.784,-3.5c-8.81,-1.022 -20.604,-2.625 -31.598,-6.782c-10.996,-4.156 -21.189,-10.865 -24.556,-19.98c-3.367,-9.114 0.091,-20.636 3.877,-28.948c3.786,-8.313 7.9,-13.418 2.821,-10.355c-5.078,3.062 -19.348,14.292 -25.755,28.001c-6.407,13.709 -4.951,29.897 1.165,41.491c6.116,11.594 16.891,18.594 29.195,22.021c12.306,3.427 26.14,3.282 35.459,2.261c9.319,-1.021 14.124,-2.917 15.726,-2.917c1.602,0 0,1.896 -8.3,5.907c-8.3,4.01 -23.298,10.136 -33.054,12.906c-9.758,2.771 -14.272,2.188 -14.199,5.688c0.073,3.5 4.732,11.084 12.523,22.058c7.792,10.974 18.713,25.34 21.697,31.464c2.986,6.126 -1.965,4.011 -7.171,-1.749c-5.205,-5.761 -10.666,-15.167 -8.336,-21.584c2.33,-6.417 12.45,-9.844 22.169,-16.006c9.72,-6.162 19.039,-15.058 24.645,-22.204c5.606,-7.147 7.499,-12.542 7.572,-18.011c0.073,-5.469 -1.674,-11.011 -10.266,-14.803c-8.591,-3.791 -24.026,-5.834 -35.384,-9.625c-11.357,-3.792 -18.64,-9.334 -22.498,-17.792c-3.859,-8.459 -4.296,-19.835 -1.092,-29.532c3.203,-9.699 10.049,-17.72 18.057,-24.975c8.009,-7.256 17.183,-13.746 22.716,-18.376c5.533,-4.631 7.426,-7.401 4.441,-13.745c-2.985,-6.345 -10.848,-16.261 -15.89,-27.819c-5.042,-11.558 -7.263,-24.756 -7.626,-35.257c-0.364,-10.5 1.128,-18.302 7.626,-23.516c6.498,-5.214 18.001,-7.839 29.942,-6.016c11.94,1.823 24.317,8.094 33.418,13.272c9.1,5.177 14.925,9.26 15.507,12.469c0.583,3.208 -4.077,5.542 -8.372,9.334c-4.296,3.791 -8.227,9.041 -14.343,6.489c-6.116,-2.552 -14.416,-12.906 -23.007,-19.032c-8.591,-6.125 -17.473,-8.021 -22.388,-5.76c-4.914,2.26 -5.861,8.677 -5.205,14.219c0.655,5.542 2.912,10.209 7.972,14.365c5.06,4.156 12.923,7.803 20.349,9.553c7.426,1.749 14.416,1.604 17.11,3.572c2.693,1.969 1.092,6.053 -3.786,11.959c-4.878,5.907 -13.033,13.636 -17.255,15.532c-4.223,1.896 -4.514,-2.042 -1.456,-6.198c3.057,-4.156 9.464,-8.532 16.163,-13.49c6.698,-4.958 13.687,-10.5 19.803,-16.553c6.116,-6.052 11.358,-12.615 15.944,-14.802c4.587,-2.188 8.519,0 12.159,1.896c3.64,1.896 6.989,3.5 8.81,0.218c1.82,-3.281 2.111,-11.448 4.805,-18.813c2.694,-7.365 7.79,-13.927 13.906,-14.876c6.115,-0.948 13.25,3.72 16.818,10.574c3.567,6.854 3.567,15.896 3.203,24.136c-0.364,8.24 -1.092,15.678 3.204,31.793c4.295,16.115 13.615,40.908 20.094,60.085c6.48,19.178 10.12,32.741 4.442,56.513c-5.679,23.771 -20.677,57.751 -30.725,76.784c-10.047,19.032 -15.143,23.115 -23.298,22.021c-8.154,-1.093 -19.366,-7.365 -27.739,-15.021c-8.372,-7.657 -13.906,-16.699 -18.493,-24.865c-4.586,-8.167 -8.227,-15.459 -10.52,-17.1c-2.293,-1.641 -3.24,2.37 -1.784,6.271c1.456,3.901 5.315,7.693 9.137,5.25c3.823,-2.443 7.609,-11.12 10.084,-18.813c2.475,-7.693 3.64,-14.401 2.985,-22.131c-0.655,-7.729 -3.131,-16.48 -8.809,-24.136c-5.679,-7.657 -14.562,-14.219 -25.483,-16.626c-10.921,-2.406 -23.88,-0.656 -31.161,-1.75c-7.28,-1.094 -8.882,-5.031 -4.514,-5.906c4.369,-0.875 14.707,1.312 25.774,3.354c11.066,2.042 22.861,3.938 30.433,8.604c7.572,4.667 10.921,12.105 13.178,22.387c2.257,10.281 3.422,23.406 5.77,29.75c2.348,6.344 5.879,5.907 9.592,4.449c3.713,-1.459 7.608,-3.938 10.429,-9.698c2.821,-5.761 4.569,-14.803 3.622,-23.627c-0.946,-8.823 -4.586,-17.427 -9.319,-26.688c-4.732,-9.26 -10.557,-19.178 -15.144,-25.741c-4.586,-6.562 -7.935,-9.77 -13.105,-11.52c-5.169,-1.751 -12.158,-2.042 -21.113,-0.803c-8.956,1.24 -19.876,4.011 -25.41,3.938c-5.533,-0.073 -5.679,-2.99 2.112,-5.688c7.79,-2.698 23.516,-5.177 33.199,-5.76c9.683,-0.584 13.324,0.729 18.275,5.104c4.95,4.375 11.212,11.813 16.163,20.345c4.95,8.531 8.591,18.156 11.139,23.99c2.548,5.833 4.004,7.875 7.644,5.031c3.641,-2.843 9.465,-10.573 11.722,-17.136c2.257,-6.563 0.947,-11.958 -2.184,-19.907c-3.131,-7.948 -8.081,-18.448 -12.887,-26.98c-4.805,-8.532 -9.464,-15.094 -15.653,-20.272c-6.188,-5.176 -13.906,-8.968 -20.386,-9.916c-6.479,-0.948 -11.721,0.948 -14.197,1.02c-2.475,0.074 -2.184,-1.676 1.82,-3.208c4.005,-1.531 11.722,-2.844 18.42,-2.552c6.698,0.291 12.377,2.188 18.493,7.948c6.116,5.76 12.668,15.386 16.964,24.865c4.295,9.48 6.334,18.814 8.445,22.97c2.112,4.157 4.296,3.136 6.407,0.438c2.112,-2.699 4.15,-7.073 4.223,-14.219c0.073,-7.147 -1.82,-17.064 -3.931,-25.012c-2.112,-7.948 -4.442,-13.927 -8.228,-19.105c-3.785,-5.177 -9.028,-9.552 -11.867,-13.891c-2.839,-4.338 -3.276,-8.641 0.692,-7.219c3.968,1.422 12.34,8.568 17.068,16.097c4.733,7.529 5.825,15.441 8.773,25.978c2.949,10.537 7.754,23.698 6.589,40.999c-1.16,17.3 -8.295,38.738 -16.031,54.525c-7.735,15.787 -16.072,25.922 -21.605,37.662c-5.533,11.74 -8.263,25.084 -3.804,36.715c4.459,11.631 16.108,21.548 35.147,62.747c19.039,41.198 45.468,113.68 58.682,149.92c13.214,36.241 19.103,52.393 19.103,52.393" style="fill:none;stroke:#003097;stroke-width:3px;"/></g></g></g></g></svg>